<svg xmlns="http://www.w3.org/2000/svg" xmlns:xlink="http://www.w3.org/1999/xlink" version="1.1" x="0px" y="0px" viewBox="0 0 100 100" style="enable-background:new 0 0 100 100;" xml:space="preserve"><path d="M69.5,18.3c0,1.4-1.1,2.6-2.6,2.6h-34c-1.4,0-2.6-1.1-2.6-2.6s1.1-2.6,2.6-2.6h34C68.4,15.7,69.5,16.8,69.5,18.3z   M45.3,51.1c-5,1.9-8.5,6.7-8.5,12.3c0,0.9,0.8,1.7,1.7,1.7h22.9c0.9,0,1.7-0.8,1.7-1.7c0-5.5-3.4-10.2-8.1-12.2  c-0.4-0.2-0.5-0.8-0.1-1.1c2.5-1.7,4-4.8,3.4-8.2c-0.6-3.2-3.1-5.8-6.3-6.5c-5.3-1.1-10,2.9-10,8c0,2.7,1.3,5.1,3.4,6.6  C45.8,50.4,45.7,51,45.3,51.1z M22.6,11h-9.4c-1.4,0-2.6,1.1-2.6,2.6V23c0,1.4,1.1,2.6,2.6,2.6h9.4c1.4,0,2.6-1.1,2.6-2.6v-9.4  C25.2,12.1,24,11,22.6,11z M86.6,11h-9.4c-1.4,0-2.6,1.1-2.6,2.6V23c0,1.4,1.1,2.6,2.6,2.6h9.4c1.4,0,2.6-1.1,2.6-2.6v-9.4  C89.2,12.1,88,11,86.6,11z M66.9,79.7h-34c-1.4,0-2.6,1.1-2.6,2.6s1.1,2.6,2.6,2.6h34c1.4,0,2.6-1.1,2.6-2.6S68.4,79.7,66.9,79.7z   M22.6,75h-9.4c-1.4,0-2.6,1.1-2.6,2.6v9.4c0,1.4,1.1,2.6,2.6,2.6h9.4c1.4,0,2.6-1.1,2.6-2.6v-9.4C25.2,76.1,24,75,22.6,75z   M86.6,75h-9.4c-1.4,0-2.6,1.1-2.6,2.6v9.4c0,1.4,1.1,2.6,2.6,2.6h9.4c1.4,0,2.6-1.1,2.6-2.6v-9.4C89.2,76.1,88,75,86.6,75z   M20.5,67.3v-34c0-1.4-1.1-2.6-2.6-2.6s-2.6,1.1-2.6,2.6v34c0,1.4,1.1,2.6,2.6,2.6S20.5,68.7,20.5,67.3z M84.5,67.3v-34  c0-1.4-1.1-2.6-2.6-2.6c-1.4,0-2.6,1.1-2.6,2.6v34c0,1.4,1.1,2.6,2.6,2.6C83.3,69.8,84.5,68.7,84.5,67.3z"></path></svg>