<?xml version="1.0" standalone="no"?>
<!DOCTYPE svg PUBLIC "-//W3C//DTD SVG 20010904//EN"
 "http://www.w3.org/TR/2001/REC-SVG-20010904/DTD/svg10.dtd">
<svg version="1.0" xmlns="http://www.w3.org/2000/svg"
 width="700.000000pt" height="700.000000pt" viewBox="0 0 700.000000 700.000000"
 preserveAspectRatio="xMidYMid meet">
<metadata>
Created by potrace 1.14, written by Peter Selinger 2001-2017
</metadata>
<g transform="translate(0.000000,700.000000) scale(0.100000,-0.100000)"
fill="#000000" stroke="none">
<path d="M3400 6857 c-24 -39 -48 -76 -52 -82 -5 -5 -117 -179 -249 -385 -274
-426 -320 -492 -431 -602 -187 -187 -444 -340 -740 -442 -172 -59 -291 -87
-553 -130 -17 -3 -62 -8 -100 -12 -39 -3 -88 -7 -110 -10 -79 -8 -337 -4 -682
10 l-103 5 -9 -37 c-5 -20 -12 -50 -14 -67 -3 -16 -24 -122 -47 -235 -58 -291
-74 -391 -94 -595 -28 -288 -29 -924 -2 -1180 3 -22 7 -67 11 -100 17 -169 53
-402 90 -585 3 -14 7 -37 10 -51 19 -103 98 -387 155 -559 217 -652 542 -1218
969 -1690 l41 -45 0 152 0 153 184 2 184 3 -50 55 c-27 30 -64 73 -81 94 -18
22 -39 47 -48 56 -30 32 -165 215 -226 305 -130 195 -274 455 -357 645 -15 36
-34 79 -41 95 -100 227 -227 641 -271 885 -3 14 -11 57 -19 95 -18 92 -35 189
-40 228 -2 18 -8 67 -14 110 -6 44 -13 113 -17 155 -3 43 -7 88 -10 102 -22
132 -22 760 0 970 2 19 7 69 10 110 4 41 9 82 11 90 2 8 6 37 9 64 3 26 13 83
21 125 18 92 23 121 24 141 1 13 30 15 198 15 178 1 288 6 393 21 76 11 87 13
130 19 25 3 79 13 120 22 41 8 86 17 100 19 207 39 493 139 715 250 109 55
332 192 371 228 7 6 31 26 55 45 63 50 247 235 305 308 27 34 101 143 164 242
63 99 117 181 120 181 3 0 21 -26 39 -57 136 -228 264 -400 400 -533 112 -111
137 -132 251 -214 298 -214 709 -386 1105 -462 22 -4 47 -9 55 -11 8 -1 33 -6
55 -9 22 -3 49 -7 60 -9 200 -31 323 -40 536 -40 l187 0 22 -130 c13 -71 24
-137 25 -145 51 -306 65 -900 30 -1265 -14 -139 -43 -381 -50 -405 -2 -8 -7
-35 -10 -60 -10 -73 -44 -237 -71 -345 -155 -619 -403 -1160 -747 -1625 -67
-91 -193 -247 -226 -281 -31 -31 -71 -79 -71 -84 0 -3 85 -5 189 -5 l188 0 1
-132 c0 -73 1 -140 1 -148 1 -18 45 28 163 171 539 657 897 1472 1053 2399 3
19 10 60 15 90 5 30 12 82 16 115 3 33 8 67 9 75 2 8 6 51 10 95 4 44 9 88 11
98 18 101 26 777 11 977 -19 252 -53 505 -92 674 -7 34 -16 75 -18 91 -6 33
-29 152 -53 262 l-15 71 -147 -6 c-209 -9 -645 -8 -725 1 -202 22 -414 64
-562 110 -38 12 -72 22 -75 22 -3 1 -18 7 -33 13 -16 7 -33 12 -38 12 -23 0
-271 117 -362 171 -246 146 -420 318 -581 571 -33 51 -74 116 -92 143 -18 28
-123 192 -234 365 -110 173 -204 316 -208 317 -4 2 -27 -30 -52 -70z"/>
</g>
</svg>
