<?xml version="1.0" encoding="UTF-8"?>
<svg width="1200pt" height="1200pt" version="1.1" viewBox="0 0 1200 1200" xmlns="http://www.w3.org/2000/svg">
 <g fill="#fff">
  <path d="m590.4 470.4c-64.801 0-118.8 52.801-118.8 118.8s52.801 118.8 118.8 118.8 118.8-52.801 118.8-118.8-52.801-118.8-118.8-118.8z"/>
  <path d="m699.6 748.8h-218.4c-56.398 0-103.2 45.602-103.2 103.2v96h424.8v-96c0-57.602-44.402-103.2-103.2-103.2z"/>
  <path d="m1135.2 403.2-19.199-96-100.8 3.6016c-39.602 0-238.8-7.1992-327.6-150l-96-150-97.199 151.2c-88.797 141.6-288 148.8-326.4 148.8l-103.2-3.6016-19.199 96c-3.6016 18-32.398 186 8.3984 384 25.199 122.4 81.602 272.4 201.6 402v-52.801h63.602c-110.4-117.6-162-254.4-184.8-366-38.398-182.4-12-336-8.3984-351.6l4.8008-27.602 33.602 1.1992c46.801 0 285.6-9.6016 396-187.2l27.602-43.199 26.398 42c113.99 180 352.79 188.4 401.99 188.4l32.398-1.1992 4.8008 27.602c3.6016 16.801 30 166.8-8.3984 351.6-24 111.6-75.602 247.2-186 366h66v51.598c118.8-129.6 175.2-278.4 200.4-399.6 43.203-201.6 13.203-367.2 9.6016-385.2z"/>
 </g>
</svg>
