<svg xmlns="http://www.w3.org/2000/svg" xmlns:xlink="http://www.w3.org/1999/xlink" version="1.1" x="0px" y="0px" viewBox="0 0 100 100" style="enable-background:new 0 0 100 100;" xml:space="preserve"><path d="M49.2,39.2c-5.4,0-9.9,4.4-9.9,9.9s4.4,9.9,9.9,9.9s9.9-4.4,9.9-9.9S54.7,39.2,49.2,39.2z"></path><path d="M58.3,62.4H40.1c-4.7,0-8.6,3.8-8.6,8.6v8h35.4v-8C66.9,66.2,63.2,62.4,58.3,62.4z"></path><path d="M94.6,33.6l-1.6-8l-8.4,0.3c-3.3,0-19.9-0.6-27.3-12.5l-8-12.5l-8.1,12.6C33.8,25.3,17.2,25.9,14,25.9  l-8.6-0.3l-1.6,8c-0.3,1.5-2.7,15.5,0.7,32c2.1,10.2,6.8,22.7,16.8,33.5v-4.4h5.3c-9.2-9.8-13.5-21.2-15.4-30.5  c-3.2-15.2-1-28-0.7-29.3l0.4-2.3l2.8,0.1c3.9,0,23.8-0.8,33-15.6l2.3-3.6l2.2,3.5C60.7,32,80.6,32.7,84.7,32.7c0,0,0,0,0,0l2.7-0.1  l0.4,2.3c0.3,1.4,2.5,13.9-0.7,29.3c-2,9.3-6.3,20.6-15.5,30.5h5.5V99c9.9-10.8,14.6-23.2,16.7-33.3C97.4,48.9,94.9,35.1,94.6,33.6z  "></path></svg>