<?xml version="1.0" encoding="UTF-8"?>
<svg width="1200pt" height="1200pt" version="1.1" viewBox="0 0 1200 1200" xmlns="http://www.w3.org/2000/svg">
 <g fill="#4296dd">
  <path d="m1138.8 402-19.199-96-99.602 3.6016c-39.602 0-237.6-7.1992-326.4-150l-96-150-97.199 151.2c-86.398 141.6-285.6 147.6-324 147.6l-102-3.6016-19.199 96c-2.4023 20.398-31.203 187.2 9.5977 384 25.199 122.4 81.598 271.2 201.6 399.6v-52.801h63.602c-110.4-116.4-162-252-184.8-363.6-38.398-181.2-12-333.6-8.3984-350.4l4.8008-27.602 33.602 1.1992c46.801 0 284.4-8.3984 394.8-186l27.602-43.199 26.395 42c110.4 178.8 348 187.2 396 187.2l32.398-1.1992 4.8008 27.602c3.6016 16.801 30 166.8-8.3984 350.4-22.801 110.4-74.398 246-184.8 363.6h64.801v50.398c118.8-128.4 174-277.2 199.2-398.4 44.398-199.2 14.398-363.6 10.801-381.6z"/>
  <path d="m744 529.2-180 182.4-51.602-51.602c-6-6-16.801-6-24 0l-102 102c-6 6-6 16.801 0 24l151.2 151.2c6 6 16.801 6 24 0l102-102c6-6 6-16.801 0-24l-51.602-51.602 21.602-21.602 50.402-5.9961v-43.199h42l1.1992-43.199 43.199-1.1992-1.1992-42h43.199l-3.6016-70.801zm-154.8 332.4-39.602 39.602-127.2-126 39.602-39.602z"/>
 </g>
</svg>
