<svg xmlns="http://www.w3.org/2000/svg" xmlns:xlink="http://www.w3.org/1999/xlink" version="1.1" x="0px" y="0px" viewBox="0 0 100 100" style="enable-background:new 0 0 100 100;" xml:space="preserve"><path d="M94.9,33.5l-1.6-8L85,25.8c-3.3,0-19.8-0.6-27.2-12.5l-8-12.5l-8.1,12.6c-7.2,11.8-23.8,12.3-27,12.3  l-8.5-0.3l-1.6,8C4.4,35.1,2,49,5.4,65.4C7.5,75.6,12.2,88,22.2,98.7v-4.4h5.3C18.3,84.6,14,73.3,12.1,64c-3.2-15.1-1-27.8-0.7-29.2  l0.4-2.3l2.8,0.1c3.9,0,23.7-0.7,32.9-15.5l2.3-3.6L52,17c9.2,14.9,29,15.6,33,15.6c0,0,0,0,0,0l2.7-0.1l0.4,2.3  c0.3,1.4,2.5,13.9-0.7,29.2c-1.9,9.2-6.2,20.5-15.4,30.3h5.4v4.2c9.9-10.7,14.5-23.1,16.6-33.2C97.7,48.7,95.2,35,94.9,33.5z"></path><path d="M62,44.1L47,59.3L42.7,55c-0.5-0.5-1.4-0.5-2,0l-8.5,8.5c-0.5,0.5-0.5,1.4,0,2l12.6,12.6c0.5,0.5,1.4,0.5,2,0l8.5-8.5  c0.5-0.5,0.5-1.4,0-2l-4.3-4.3l1.8-1.8L57,61l0-3.6l0,0l3.5,0l0.1-3.6l3.6-0.1l-0.1-3.5l0,0l3.6,0l-0.3-5.9L62,44.1z M49.1,71.8  l-3.3,3.3L35.2,64.6l3.3-3.3L49.1,71.8z"></path></svg>