<svg xmlns="http://www.w3.org/2000/svg" xmlns:xlink="http://www.w3.org/1999/xlink" version="1.1" x="0px" y="0px" viewBox="0 0 54 54" style="enable-background:new 0 0 54 54;" xml:space="preserve"><defs><radialGradient id="NITdWUoJNV"><stop offset="82%" style="stop-color:#009ce0"></stop><stop offset="0%" style="stop-color:#4d4d4d"></stop></radialGradient></defs><style type="text/css">
	.st0{display:none;}
	.st1{display:inline;}
	.st2{fill-rule:evenodd;clip-rule:evenodd;}
</style><g class="st0"><path class="st1" d="M27,9c-7.6,0-13,7.1-13,13s5.4,13,13,13s13-7.1,13-13S34.6,9,27,9z M41.4,31.3c0,0-8.2,10.2-12.2,15.8   c-1.5,2.1-2.1,3-4.3,0c-4-5.5-12.2-15.8-12.2-15.8h0.1c-1.7-2.6-2.7-6-2.7-9.4C10,12.4,17.6,5,27,5s17,7.4,17,16.9   C44,25.3,43,28.7,41.4,31.3z"></path></g><g class="st0"><path class="st1" d="M47,23H7c-1.1,0-2-0.9-2-2s0.9-2,2-2h40c1.1,0,2,0.9,2,2S48.1,23,47,23z M37,11H7c-1.1,0-2-0.9-2-2s0.9-2,2-2   h30c1.1,0,2,0.9,2,2S38.1,11,37,11z M7,31h20c1.1,0,2,0.9,2,2c0,1.1-0.9,2-2,2H7c-1.1,0-2-0.9-2-2C5,31.9,5.9,31,7,31z M7,43h36   c1.1,0,2,0.9,2,2s-0.9,2-2,2H7c-1.1,0-2-0.9-2-2S5.9,43,7,43z"></path></g><g class="st0"><path class="st1" d="M45,37H9c-2.2,0-4-1.8-4-4V13c0-2.2,1.8-4,4-4h36c2.2,0,4,1.8,4,4v20C49,35.2,47.2,37,45,37z M45,15   c0-1.1-0.9-2-2-2H11c-1.1,0-2,0.9-2,2v16c0,1.1,0.9,2,2,2h32c1.1,0,2-0.9,2-2V15z M17,41h20c1.1,0,2,0.9,2,2s-0.9,2-2,2H17   c-1.1,0-2-0.9-2-2S15.9,41,17,41z"></path></g><g class="st0"><path class="st1" d="M47,41c-1.1,0-2-0.9-2-2c0-3.3-2.7-6-6-6s-6,2.7-6,6v3l0,0v1c0,1.1-0.9,2-2,2c-1.1,0-2-0.9-2-2   c0-5.5-4.5-10-10-10S9,37.5,9,43c0,1.1-0.9,2-2,2s-2-0.9-2-2v-0.7c0-0.4,0.3-2.1,0.4-2.4c0.9-3.9,3.4-7.1,6.8-9   C9.1,28.7,7,25.1,7,21c0-6.6,5.4-12,12-12s12,5.4,12,12c0,4.1-2.1,7.7-5.2,9.9c1.7,0.9,3.1,2.2,4.3,3.7c0.8-1.5,1.9-2.9,3.3-3.8   C31.9,29.3,31,27.2,31,25c0-4.4,3.6-8,8-8s8,3.6,8,8c0,2.2-0.9,4.3-2.4,5.7c1.7,1.2,3.1,2.9,3.8,4.9c0.3,0.6,0.5,1.8,0.6,2.4v1   C49,40.1,48.1,41,47,41z M27,21c0-4.4-3.6-8-8-8s-8,3.6-8,8s3.6,8,8,8S27,25.4,27,21z M39,21c-2.2,0-4,1.8-4,4s1.8,4,4,4s4-1.8,4-4   S41.2,21,39,21z"></path></g><g class="st0"><path class="st1" d="M45,41H9c-2.2,0-4-1.8-4-4V17c0-2.2,1.8-4,4-4h36c2.2,0,4,1.8,4,4v20C49,39.2,47.2,41,45,41z M22.4,28.1   L11.7,37h30.6l-10.7-8.8l-2.9,2c-0.3,0.5-0.8,0.7-1.4,0.8c-0.8,0.2-1.7-0.1-2.2-0.8c0,0,0-0.1-0.1-0.1L22.4,28.1z M9,19v15.8   l10.4-8.6L9,19L9,19z M12.4,17L27,27.1L41.6,17H12.4z M45,19L45,19l-10.4,7.1L45,34.8V19z"></path></g><g class="st0"><path class="st1" d="M45,39H35l-4.5,4.5c-1.9,1.9-5.1,1.9-7,0L18.9,39H9c-2.2,0-4-1.8-4-4V13c0-2.2,1.8-4,4-4h36c2.2,0,4,1.8,4,4   v22C49,37.2,47.2,39,45,39z M20.7,36c1.3,1.3,4,4,4,4c1.3,1.3,3.4,1.3,4.7,0c0,0,2.7-2.7,4-4c1.2-1.2,1.7-1,1.7-1h8   c1.1,0,2-0.9,2-2V15c0-1.1-0.9-2-2-2H11c-1.1,0-2,0.9-2,2v18c0,1.1,0.9,2,2,2h8C19,35,19.7,35,20.7,36z"></path></g><g class="st0"><path class="st1" d="M46.4,45.9L46.4,45.9c0.2,0.3,0.3,0.7,0.3,1c0,1.1-0.9,2-2,2c-0.8,0-1.4-0.4-1.8-1l0,0   c-2.7-6-8.8-10.2-15.9-10.2s-13.1,4.2-15.9,10.2l0,0c-0.4,0.6-1,1-1.7,1c-1.1,0-2-0.9-2-2c0-0.3,0.1-0.6,0.2-0.9   c0-0.1,0-0.1,0.1-0.2c2.2-4.9,6.1-8.4,11-10.6c-4.7-2.9-7.9-8.1-7.9-14C10.6,12.3,18,5,27,5s16.4,7.3,16.4,16.4   c0,5.9-3.2,11.1-7.9,14C40.4,37.5,44.2,41.1,46.4,45.9z M39.3,21.4c0-6.8-5.5-12.3-12.3-12.3s-12.3,5.5-12.3,12.3   S20.2,33.7,27,33.7S39.3,28.2,39.3,21.4z"></path></g><g class="st0"><g class="st1"><g><path d="M7,19h5c1.1,0,2-0.9,2-2s-0.9-2-2-2H7c-1.1,0-2,0.9-2,2S5.9,19,7,19z M13,37c0-1.1-0.9-2-2-2H7c-1.1,0-2,0.9-2,2     s0.9,2,2,2h4C12.1,39,13,38.1,13,37z M9,31h4v-8H9V31z M45,5H13c-2.2,0-4,1.8-4,4v2h4c0-1.1,0.9-2,2-2h28c1.1,0,2,0.9,2,2v32     c0,1.1-0.9,2-2,2H15c-1.1,0-2-0.9-2-2H9v2c0,2.2,1.8,4,4,4h32c2.2,0,4-1.8,4-4V9C49,6.8,47.2,5,45,5z M19,37c0,1.1,0.9,2,2,2     s2-0.9,2-2c0-3.3,2.7-6,6-6s6,2.7,6,6c0,1.1,0.9,2,2,2s2-0.9,2-2c0-3.5-1.7-6.5-4.4-8.3c1.5-1.5,2.4-3.5,2.4-5.7c0-4.4-3.6-8-8-8     s-8,3.6-8,8c0,2.2,0.9,4.3,2.4,5.7C20.7,30.5,19,33.5,19,37z M29,19c2.2,0,4,1.8,4,4s-1.8,4-4,4s-4-1.8-4-4S26.8,19,29,19z"></path></g></g></g><g class="st0"><path class="st1" d="M49,13.1V43c0,2.2-1.8,4-4,4H9c-2.2,0-4-1.8-4-4V13.1c0,0,0,0,0-0.1v-2c0-1.1,0.9-2,2-2h4c1.1,0,2,0.9,2,2h2V9   c0-1.1,0.9-2,2-2s2,0.9,2,2v2h2c0-1.5,0.9-2,2-2c1.2,0,6.8,0,8,0c1.1,0,2,0.6,2,2h2V9c0-1.1,0.9-2,2-2s2,0.9,2,2v2h2   c0-1.1,0.9-2,2-2h4c1.1,0,2,0.9,2,2V13.1C49,13,49,13,49,13.1z M10,15c-0.6,0-1,0.4-1,1v25c0,1.1,0.9,2,2,2h32c1.1,0,2-0.9,2-2V16   c0-0.6-0.4-1-1-1H10z M39,39h-4c-1.1,0-2-0.9-2-2s0.9-2,2-2h4c1.1,0,2,0.9,2,2S40.1,39,39,39z M39,31h-4c-1.1,0-2-0.9-2-2   s0.9-2,2-2h4c1.1,0,2,0.9,2,2S40.1,31,39,31z M39,23h-4c-1.1,0-2-0.9-2-2s0.9-2,2-2h4c1.1,0,2,0.9,2,2S40.1,23,39,23z M29,39h-4   c-1.1,0-2-0.9-2-2s0.9-2,2-2h4c1.1,0,2,0.9,2,2S30.1,39,29,39z M29,31h-4c-1.1,0-2-0.9-2-2s0.9-2,2-2h4c1.1,0,2,0.9,2,2   S30.1,31,29,31z M29,23h-4c-1.1,0-2-0.9-2-2s0.9-2,2-2h4c1.1,0,2,0.9,2,2S30.1,23,29,23z M19,39h-4c-1.1,0-2-0.9-2-2s0.9-2,2-2h4   c1.1,0,2,0.9,2,2S20.1,39,19,39z M19,31h-4c-1.1,0-2-0.9-2-2s0.9-2,2-2h4c1.1,0,2,0.9,2,2S20.1,31,19,31z M19,23h-4   c-1.1,0-2-0.9-2-2s0.9-2,2-2h4c1.1,0,2,0.9,2,2S20.1,23,19,23z"></path></g><path class="st2" d="M27,49C14.8,49,5,39.2,5,27C5,14.8,14.8,5,27,5c12.2,0,22,9.8,22,22C49,39.2,39.2,49,27,49z M35.9,42.6  c-1.6-3.3-5-5.6-8.9-5.6c-3.9,0-7.3,2.3-9,5.6c2.6,1.5,5.7,2.4,9,2.4C30.3,45,33.3,44.1,35.9,42.6z M27,31c3.3,0,6-2.7,6-6  c0-3.3-2.7-6-6-6s-6,2.7-6,6C21,28.3,23.7,31,27,31z M27,9C17.1,9,9,17.1,9,27c0,5.2,2.2,9.9,5.8,13.2c1.7-3,4.3-5.2,7.6-6.4  c-3.2-1.7-5.4-5-5.4-8.8c0-5.5,4.5-10,10-10c5.5,0,10,4.5,10,10c0,3.8-2.2,7.1-5.4,8.8c3.2,1.1,5.9,3.4,7.6,6.4  c3.5-3.3,5.8-8,5.8-13.2C45,17.1,36.9,9,27,9z" style="fill: url(&quot;#NITdWUoJNV&quot;);"></path></svg>