<?xml version="1.0" encoding="UTF-8" standalone="no"?>
<svg
   version="1.1"
   x="0px"
   y="0px"
   viewBox="0 0 100 100"
   style="enable-background:new 0 0 100 100;"
   xml:space="preserve"
   id="svg99"
   sodipodi:docname="logo-blue.svg"
   inkscape:version="1.1.1 (c3084ef, 2021-09-22)"
   xmlns:inkscape="http://www.inkscape.org/namespaces/inkscape"
   xmlns:sodipodi="http://sodipodi.sourceforge.net/DTD/sodipodi-0.dtd"
   xmlns="http://www.w3.org/2000/svg"
   xmlns:svg="http://www.w3.org/2000/svg"><defs
     id="defs103" /><sodipodi:namedview
     id="namedview101"
     pagecolor="#ffffff"
     bordercolor="#666666"
     borderopacity="1.0"
     inkscape:pageshadow="2"
     inkscape:pageopacity="0.0"
     inkscape:pagecheckerboard="0"
     showgrid="false"
     inkscape:zoom="8.97"
     inkscape:cx="28.037904"
     inkscape:cy="50"
     inkscape:window-width="1312"
     inkscape:window-height="1081"
     inkscape:window-x="0"
     inkscape:window-y="0"
     inkscape:window-maximized="0"
     inkscape:current-layer="svg99" /><path
     d="M94.6,33.6l-1.6-8l-8.4,0.3c-3.3,0-19.9-0.6-27.3-12.5l-8-12.5l-8.1,12.6C33.8,25.3,17.2,25.9,14,25.9  l-8.6-0.3l-1.6,8c-0.3,1.5-2.7,15.5,0.7,32c2.1,10.2,6.8,22.7,16.8,33.5v-4.4h5.3c-9.2-9.8-13.5-21.2-15.4-30.5  c-3.2-15.2-1-28-0.7-29.3l0.4-2.3l2.8,0.1c3.9,0,23.8-0.8,33-15.6l2.3-3.6l2.2,3.5C60.7,32,80.6,32.7,84.7,32.7c0,0,0,0,0,0l2.7-0.1  l0.4,2.3c0.3,1.4,2.5,13.9-0.7,29.3c-2,9.3-6.3,20.6-15.5,30.5h5.5V99c9.9-10.8,14.6-23.2,16.7-33.3C97.4,48.9,94.9,35.1,94.6,33.6z  "
     id="path97"
     style="fill:#4297dd;fill-opacity:1" /></svg>
